<svg xmlns="http://www.w3.org/2000/svg" viewBox="0 0 1440 1600">
  <!-- Background -->
  <rect width="1440" height="1600" fill="#F2F2F2"/>
  
  <!-- Header Navigation -->
  <rect x="0" y="0" width="1440" height="80" fill="#1A2639"/>
  <text x="100" y="50" font-family="Montserrat" font-weight="700" font-size="28" fill="#F2F2F2">ZERET ARCHITECTURE</text>
  
  <!-- Navigation Items -->
  <text x="880" y="50" font-family="Montserrat" font-weight="400" font-size="16" fill="#F2F2F2">HOME</text>
  <text x="960" y="50" font-family="Montserrat" font-weight="400" font-size="16" fill="#F2F2F2">ABOUT</text>
  <text x="1040" y="50" font-family="Montserrat" font-weight="400" font-size="16" fill="#F2F2F2">SERVICES</text>
  <text x="1140" y="50" font-family="Montserrat" font-weight="400" font-size="16" fill="#F2F2F2">PORTFOLIO</text>
  <text x="1250" y="50" font-family="Montserrat" font-weight="400" font-size="16" fill="#F2F2F2">CONTACT</text>
  <rect x="1250" y="55" width="65" height="3" fill="#3F6C51"/>
  
  <!-- Contact Banner -->
  <rect x="0" y="80" width="1440" height="250" fill="#D6D5C9"/>
  <rect x="0" y="80" width="1440" height="250" fill-opacity="0.7"/>
  <text x="100" y="220" font-family="Montserrat" font-weight="700" font-size="48" fill="#1A2639">CONTACT US</text>
  <rect x="100" y="240" width="60" height="4" fill="#3F6C51"/>
  
  <!-- Two Column Layout -->
  <rect x="100" y="380" width="620" height="700" fill="#F2F2F2" stroke="#D6D5C9" stroke-width="1"/>
  
  <!-- Contact Form -->
  <text x="150" y="450" font-family="Montserrat" font-weight="600" font-size="24" fill="#1A2639">GET IN TOUCH</text>
  
  <!-- Form Fields -->
  <text x="150" y="500" font-family="Montserrat" font-weight="500" font-size="14" fill="#2C3A47">NAME</text>
  <rect x="150" y="520" width="520" height="50" fill="#F2F2F2" stroke="#D6D5C9" stroke-width="1"/>
  
  <text x="150" y="600" font-family="Montserrat" font-weight="500" font-size="14" fill="#2C3A47">EMAIL</text>
  <rect x="150" y="620" width="520" height="50" fill="#F2F2F2" stroke="#D6D5C9" stroke-width="1"/>
  
  <text x="150" y="700" font-family="Montserrat" font-weight="500" font-size="14" fill="#2C3A47">PHONE</text>
  <rect x="150" y="720" width="520" height="50" fill="#F2F2F2" stroke="#D6D5C9" stroke-width="1"/>
  
  <text x="150" y="800" font-family="Montserrat" font-weight="500" font-size="14" fill="#2C3A47">PROJECT TYPE</text>
  <rect x="150" y="820" width="520" height="50" fill="#F2F2F2" stroke="#D6D5C9" stroke-width="1"/>
  <text x="640" y="850" font-family="Montserrat" font-weight="300" font-size="20" fill="#2C3A47">▼</text>
  
  <text x="150" y="900" font-family="Montserrat" font-weight="500" font-size="14" fill="#2C3A47">MESSAGE</text>
  <rect x="150" y="920" width="520" height="100" fill="#F2F2F2" stroke="#D6D5C9" stroke-width="1"/>
  
  <rect x="150" y="1050" width="200" height="50" fill="#3F6C51"/>
  <text x="193" y="1082" font-family="Montserrat" font-weight="600" font-size="16" fill="#F2F2F2">SUBMIT</text>
  
  <!-- Contact Information -->
  <rect x="800" y="380" width="520" height="350" fill="#1A2639"/>
  <text x="850" y="450" font-family="Montserrat" font-weight="600" font-size="24" fill="#F2F2F2">CONTACT INFORMATION</text>
  
  <text x="850" y="520" font-family="Montserrat" font-weight="400" font-size="16" fill="#D6D5C9">ADDRESS</text>
  <text x="850" y="550" font-family="Montserrat" font-weight="300" font-size="16" fill="#F2F2F2">123 Madison Avenue</text>
  <text x="850" y="575" font-family="Montserrat" font-weight="300" font-size="16" fill="#F2F2F2">New York, NY 10016</text>
  
  <text x="850" y="625" font-family="Montserrat" font-weight="400" font-size="16" fill="#D6D5C9">PHONE</text>
  <text x="850" y="655" font-family="Montserrat" font-weight="300" font-size="16" fill="#F2F2F2">(212) 555-1234</text>
  
  <text x="850" y="705" font-family="Montserrat" font-weight="400" font-size="16" fill="#D6D5C9">EMAIL</text>
  <text x="850" y="735" font-family="Montserrat" font-weight="300" font-size="16" fill="#F2F2F2">info@zeretarchitecture.com</text>
  
  <!-- Google Maps Embed -->
  <rect x="800" y="750" width="520" height="330" fill="#D6D5C9"/>
  <text x="1000" y="915" font-family="Montserrat" font-weight="500" font-size="14" fill="#2C3A47">MAP EMBED</text>
  
  <!-- Office Gallery -->
  <text x="100" y="1200" font-family="Montserrat" font-weight="600" font-size="24" fill="#1A2639">OUR OFFICE</text>
  
  <rect x="100" y="1250" width="300" height="200" fill="#D6D5C9"/>
  <rect x="420" y="1250" width="300" height="200" fill="#D6D5C9"/>
  <rect x="740" y="1250" width="300" height="200" fill="#D6D5C9"/>
  <rect x="1060" y="1250" width="300" height="200" fill="#D6D5C9"/>
  
  <!-- Footer -->
  <rect x="0" y="1500" width="1440" height="100" fill="#1A2639"/>
  <text x="100" y="1550" font-family="Montserrat" font-weight="700" font-size="20" fill="#F2F2F2">ZERET ARCHITECTURE</text>
  <text x="500" y="1550" font-family="Montserrat" font-weight="300" font-size="14" fill="#D6D5C9">© 2025 Zeret Architecture. All Rights Reserved.</text>
  
  <!-- Social Icons -->
  <circle cx="1200" y="1550" r="15" fill="#3F6C51"/>
  <circle cx="1240" y="1550" r="15" fill="#3F6C51"/>
  <circle cx="1280" y="1550" r="15" fill="#3F6C51"/>
</svg>
